# Blender v3.4.1 OBJ File: 'Farm.blend'
# www.blender.org
mtllib LandDry.mtl
o LandDry_Plane
v -1.000000 0.000000 1.000000
v 1.000000 0.000000 1.000000
v -1.000000 0.000000 -1.000000
v 1.000000 0.000000 -1.000000
v -0.887339 0.116163 -0.887339
v -0.887339 0.116163 0.887339
v 0.887339 0.116163 0.887339
v 0.887339 0.116163 -0.887339
vt 0.000000 0.000000
vt 0.000000 1.000000
vt 1.000000 1.000000
vt 1.000000 0.000000
vt 0.000000 0.000000
vt 1.000000 0.000000
vt 1.000000 1.000000
vt 0.000000 1.000000
vn 0.0000 -1.0000 0.0000
vn 0.0000 1.0000 0.0000
vn 0.0000 0.6962 -0.7178
vn 0.0000 0.6962 0.7178
vn 0.7178 0.6962 0.0000
vn -0.7178 0.6962 0.0000
usemtl Material
s off
f 1/1/1 3/2/1 4/3/1 2/4/1
f 6/5/2 7/6/2 8/7/2 5/8/2
f 4/3/3 3/2/3 5/8/3 8/7/3
f 1/1/4 2/4/4 7/6/4 6/5/4
f 2/4/5 4/3/5 8/7/5 7/6/5
f 3/2/6 1/1/6 6/5/6 5/8/6
