# Blender v3.4.1 OBJ File: 'Farm.blend'
# www.blender.org
mtllib Wheat.mtl
o Wheat_Cube.001
v -0.039016 -0.426838 0.039016
v -0.044369 0.433266 0.044369
v -0.039016 -0.426838 -0.039016
v -0.044369 0.433266 -0.044369
v 0.039016 -0.426838 0.039016
v 0.044369 0.433266 0.044369
v 0.039016 -0.426838 -0.039016
v 0.044369 0.433266 -0.044369
v 0.000000 0.544313 0.000000
v 0.044369 0.326718 -0.044369
v -0.044369 0.326718 -0.044369
v -0.044369 0.326718 0.044369
v 0.044369 0.326718 0.044369
v -0.039016 0.318527 -0.039016
v 0.039016 0.318527 -0.039016
v 0.039016 0.318527 0.039016
v -0.039016 0.318527 0.039016
vt 0.597562 0.000000
vt 0.625000 0.000000
vt 0.625000 0.250000
vt 0.597562 0.250000
vt 0.625000 0.500000
vt 0.597562 0.500000
vt 0.625000 0.750000
vt 0.597562 0.750000
vt 0.625000 1.000000
vt 0.597562 1.000000
vt 0.125000 0.500000
vt 0.375000 0.500000
vt 0.375000 0.750000
vt 0.125000 0.750000
vt 0.625000 0.250000
vt 0.593281 0.500000
vt 0.593281 0.750000
vt 0.625000 1.000000
vt 0.625000 0.500000
vt 0.625000 0.750000
vt 0.593281 1.000000
vt 0.593281 0.250000
vt 0.593281 0.000000
vt 0.375000 0.000000
vt 0.375000 0.250000
vt 0.375000 1.000000
vn -1.0000 0.0000 0.0000
vn 0.0000 0.0000 -1.0000
vn 1.0000 0.0000 0.0000
vn 0.0000 0.0000 1.0000
vn 0.0000 -1.0000 0.0000
vn -0.9286 0.3710 0.0000
vn 0.8371 -0.5470 0.0000
vn 0.0000 0.3710 0.9286
vn 0.0000 0.3710 -0.9286
vn 0.9286 0.3710 0.0000
vn 0.0000 -0.5470 0.8371
vn 0.0000 -0.5470 -0.8371
vn -0.8371 -0.5470 0.0000
usemtl Material.001
s off
f 12/1/1 2/2/1 4/3/1 11/4/1
f 11/4/2 4/3/2 8/5/2 10/6/2
f 10/6/3 8/5/3 6/7/3 13/8/3
f 13/8/4 6/7/4 2/9/4 12/10/4
f 3/11/5 7/12/5 5/13/5 1/14/5
f 4/3/6 2/2/6 9/15/6
f 15/16/7 10/6/7 13/8/7 16/17/7
f 2/9/8 6/7/8 9/18/8
f 8/5/9 4/3/9 9/19/9
f 6/7/10 8/5/10 9/20/10
f 16/17/11 13/8/11 12/10/11 17/21/11
f 14/22/12 11/4/12 10/6/12 15/16/12
f 17/23/13 12/1/13 11/4/13 14/22/13
f 1/24/1 17/23/1 14/22/1 3/25/1
f 3/25/2 14/22/2 15/16/2 7/12/2
f 5/13/4 16/17/4 17/21/4 1/26/4
f 7/12/3 15/16/3 16/17/3 5/13/3
